<?xml version="1.0" encoding="utf-8"?>
<!-- Generator: Adobe Illustrator 21.0.0, SVG Export Plug-In . SVG Version: 6.00 Build 0)  -->
<svg version="1.1" id="Vrstva_1" xmlns="http://www.w3.org/2000/svg" xmlns:xlink="http://www.w3.org/1999/xlink" x="0px" y="0px"
	 viewBox="0 0 116.6 25.3" style="enable-background:new 0 0 116.6 25.3;" xml:space="preserve">
<g>
	<path d="M79.3,406.3L79.3,406.3c-0.1-0.1-0.3-0.3-0.5-0.3c-0.2-0.1-0.4-0.1-0.6-0.1c-0.4,0-0.7,0.1-0.9,0.2
		c-0.2,0.2-0.4,0.4-0.5,0.6l-2.3,6.8l-2.2-6.5c-0.2-0.7-0.7-1.1-1.5-1.1c-0.7,0-1.2,0.4-1.5,1.1l-2.2,6.5l-2.3-6.8
		c-0.1-0.2-0.3-0.4-0.5-0.6c-0.2-0.2-0.5-0.3-0.9-0.3c-0.2,0-0.4,0-0.6,0.1c-0.2,0.1-0.3,0.2-0.5,0.3c-0.1,0.1-0.2,0.3-0.3,0.5
		c-0.1,0.2-0.1,0.4-0.1,0.6c0,0.2,0,0.4,0.1,0.6l3.6,10.9c0.1,0.3,0.3,0.5,0.5,0.7c0.5,0.4,1.3,0.4,1.8,0c0.3-0.2,0.4-0.4,0.5-0.7
		l2.2-6.6l2.2,6.6c0.1,0.3,0.3,0.5,0.5,0.7c0.3,0.2,0.6,0.3,0.9,0.3c0.4,0,0.7-0.1,0.9-0.3c0.2-0.2,0.4-0.4,0.5-0.7l3.6-10.9
		c0.1-0.2,0.1-0.4,0.1-0.6c0-0.2,0-0.4-0.1-0.6C79.6,406.6,79.4,406.5,79.3,406.3z"/>
	<path d="M94.2,412.9c0-1-0.2-1.9-0.5-2.7c-0.3-0.8-0.9-1.6-1.5-2.3c-1.4-1.4-3-2-4.9-2c-1.9,0-3.6,0.7-4.9,2c-1.4,1.4-2,3-2,4.9
		v11.2c0,0.4,0.1,0.8,0.4,1.1c0.3,0.3,0.7,0.4,1.1,0.4c0.4,0,0.8-0.1,1.1-0.4c0.3-0.3,0.4-0.7,0.4-1.1v-5.4c1.1,0.8,2.5,1.2,3.9,1.2
		c0.9,0,1.8-0.2,2.7-0.5c0.8-0.3,1.6-0.9,2.3-1.5C93.5,416.5,94.2,414.8,94.2,412.9z M91.1,412.9c0,0.5-0.1,1-0.3,1.5
		c-0.2,0.5-0.5,0.9-0.8,1.3c-0.4,0.4-0.8,0.6-1.3,0.9c-1,0.4-2.1,0.4-3.1,0c-0.5-0.2-0.9-0.5-1.2-0.8c-0.3-0.4-0.6-0.8-0.8-1.3
		c-0.2-0.5-0.3-1-0.3-1.5c0-0.5,0.1-1,0.3-1.5c0.2-0.5,0.5-0.9,0.8-1.3c0.4-0.4,0.8-0.6,1.2-0.8c0.5-0.2,1-0.3,1.5-0.3
		c0.5,0,1.1,0.1,1.5,0.3c0.5,0.2,0.9,0.5,1.3,0.9c0.4,0.4,0.6,0.8,0.8,1.3C91,411.8,91.1,412.3,91.1,412.9z"/>
	<path d="M98.7,406.3c-0.3-0.3-0.7-0.4-1.1-0.4c-0.4,0-0.8,0.1-1.1,0.4c-0.3,0.3-0.4,0.7-0.4,1.1v12.1c0,0.4-0.1,0.8-0.2,1.2
		c-0.2,0.4-0.4,0.7-0.7,1c-0.3,0.3-0.6,0.5-1,0.7c-0.4,0.2-0.8,0.2-1.2,0.2c-0.4,0-0.8,0.1-1.1,0.4c-0.3,0.3-0.4,0.7-0.4,1.1
		c0,0.4,0.1,0.8,0.4,1.1c0.3,0.3,0.7,0.4,1.1,0.4c0.8,0,1.6-0.2,2.3-0.5c0.7-0.3,1.4-0.8,1.9-1.3c0.5-0.5,1-1.2,1.3-1.9
		c0.3-0.7,0.5-1.5,0.5-2.3v-12.1C99.2,407,99,406.6,98.7,406.3z"/>
</g>
<g>
	<path d="M110.8,406.3c0.1-0.1,0.3-0.2,0.5-0.2c0.2,0,0.4,0.1,0.5,0.2c0.1,0.1,0.2,0.2,0.2,0.4l3.3,9.8l3.3-9.9
		c0-0.1,0.1-0.2,0.1-0.2c0.1-0.1,0.3-0.2,0.6-0.2c0.2,0,0.4,0.1,0.5,0.2c0.1,0.1,0.2,0.3,0.2,0.5c0,0.1,0,0.2-0.1,0.3l-4,11.9
		c0,0.1-0.1,0.2-0.2,0.3c-0.1,0.1-0.3,0.2-0.5,0.2c-0.2,0-0.4-0.1-0.5-0.2c-0.1-0.1-0.1-0.2-0.2-0.3l-3.3-9.9l-3.3,9.9
		c0,0.1-0.1,0.2-0.2,0.3c-0.1,0.1-0.3,0.2-0.5,0.2c-0.2,0-0.4-0.1-0.5-0.2c-0.1-0.1-0.1-0.2-0.2-0.3l-4-11.9c0-0.1-0.1-0.2-0.1-0.3
		c0-0.2,0.1-0.4,0.2-0.5c0.1-0.1,0.3-0.2,0.5-0.2s0.4,0.1,0.5,0.2c0.1,0.1,0.1,0.1,0.1,0.2l3.3,9.9l3.3-9.8
		C110.7,406.5,110.7,406.4,110.8,406.3z"/>
	<path d="M132.4,416.6c0.2,0,0.4,0.1,0.5,0.2c0.1,0.1,0.2,0.3,0.2,0.5s-0.1,0.4-0.2,0.5c-1.2,1.1-2.7,1.6-4.4,1.6
		c-1.9,0-3.4-0.7-4.8-2s-2-2.9-2-4.8s0.7-3.4,2-4.8s2.9-2,4.8-2c1.9,0,3.4,0.7,4.8,2c1.3,1.3,2,2.9,2,4.8c0,0.2-0.1,0.4-0.2,0.5
		c-0.1,0.1-0.3,0.2-0.5,0.2h-11.2c0.2,1.2,0.7,2.2,1.5,3c1,1,2.3,1.5,3.7,1.5c0.7,0,1.3-0.1,1.8-0.3s1.1-0.5,1.5-0.9
		C132.1,416.7,132.3,416.6,132.4,416.6z M133.8,412.1c-0.2-1.2-0.7-2.2-1.5-3c-1-1-2.3-1.5-3.7-1.5c-1.4,0-2.7,0.5-3.7,1.5
		c-0.8,0.8-1.3,1.8-1.5,3H133.8z"/>
	<path d="M138.7,408.5l0.5-0.5c1.3-1.3,2.9-2,4.8-2s3.4,0.7,4.8,2c1.3,1.3,2,2.9,2,4.8s-0.7,3.4-2,4.8c-1.3,1.3-2.9,2-4.8,2
		s-3.4-0.7-4.8-2s-2-2.9-2-4.8v-11.7c0-0.2,0.1-0.4,0.2-0.5c0.1-0.1,0.3-0.2,0.5-0.2c0.2,0,0.4,0.1,0.5,0.2c0.1,0.1,0.2,0.3,0.2,0.5
		V408.5z M144,418c1.4,0,2.7-0.5,3.7-1.5c1-1,1.5-2.2,1.5-3.7s-0.5-2.7-1.5-3.7c-1-1-2.3-1.5-3.7-1.5s-2.7,0.5-3.7,1.5
		c-1,1-1.5,2.3-1.5,3.7s0.5,2.7,1.5,3.7C141.3,417.5,142.5,418,144,418z"/>
</g>
<g>
	<path d="M174.7,419.5h-1.5l-5.7-9l-5.8,9h-1.5l6.5-10l-5.9-9.2h1.5l5.2,8.2l5.3-8.2h1.4l-6,9.2L174.7,419.5z"/>
	<path d="M177.4,419.5v-19.2h1.3v19.2H177.4z"/>
</g>
<g>
	<path d="M17.1,6L17.1,6c-0.1-0.1-0.3-0.3-0.5-0.3c-0.2-0.1-0.4-0.1-0.6-0.1c-0.4,0-0.7,0.1-0.9,0.2c-0.2,0.2-0.4,0.4-0.5,0.6
		l-2.3,6.8l-2.2-6.5C10,6,9.5,5.6,8.8,5.6C8.1,5.6,7.6,6,7.3,6.7l-2.2,6.5L2.9,6.4C2.8,6.2,2.6,6,2.4,5.8C2.1,5.7,1.9,5.6,1.5,5.6
		c-0.2,0-0.4,0-0.6,0.1C0.7,5.8,0.6,5.9,0.4,6C0.3,6.2,0.2,6.3,0.1,6.5C0,6.7,0,6.9,0,7.1c0,0.2,0,0.4,0.1,0.6l3.6,10.9
		c0.1,0.3,0.3,0.5,0.5,0.7c0.5,0.4,1.3,0.4,1.8,0c0.3-0.2,0.4-0.4,0.5-0.7l2.2-6.6l2.2,6.6c0.1,0.3,0.3,0.5,0.5,0.7
		c0.3,0.2,0.6,0.3,0.9,0.3c0.4,0,0.7-0.1,0.9-0.3c0.2-0.2,0.4-0.4,0.5-0.7l3.6-10.9c0.1-0.2,0.1-0.4,0.1-0.6c0-0.2,0-0.4-0.1-0.6
		C17.4,6.3,17.3,6.2,17.1,6z"/>
	<path d="M32,12.6c0-1-0.2-1.9-0.5-2.7C31.2,9,30.6,8.3,30,7.6c-1.4-1.4-3-2-4.9-2c-1.9,0-3.6,0.7-4.9,2c-1.4,1.4-2,3-2,4.9v11.2
		c0,0.4,0.1,0.8,0.4,1.1c0.3,0.3,0.7,0.4,1.1,0.4c0.4,0,0.8-0.1,1.1-0.4c0.3-0.3,0.4-0.7,0.4-1.1v-5.4c1.1,0.8,2.5,1.2,3.9,1.2
		c0.9,0,1.8-0.2,2.7-0.5c0.8-0.3,1.6-0.9,2.3-1.5C31.3,16.1,32,14.5,32,12.6z M29,12.6c0,0.5-0.1,1-0.3,1.5
		c-0.2,0.5-0.5,0.9-0.8,1.3c-0.4,0.4-0.8,0.6-1.3,0.9c-1,0.4-2.1,0.4-3.1,0c-0.5-0.2-0.9-0.5-1.2-0.8c-0.3-0.4-0.6-0.8-0.8-1.3
		c-0.2-0.5-0.3-1-0.3-1.5c0-0.5,0.1-1,0.3-1.5c0.2-0.5,0.5-0.9,0.8-1.3c0.4-0.4,0.8-0.6,1.2-0.8c0.5-0.2,1-0.3,1.5-0.3
		c0.5,0,1.1,0.1,1.5,0.3c0.5,0.2,0.9,0.5,1.3,0.9c0.4,0.4,0.6,0.8,0.8,1.3C28.9,11.5,29,12,29,12.6z"/>
	<path d="M36.6,6c-0.3-0.3-0.7-0.4-1.1-0.4c-0.4,0-0.8,0.1-1.1,0.4C34.1,6.3,34,6.7,34,7.1v12.1c0,0.4-0.1,0.8-0.2,1.2
		c-0.2,0.4-0.4,0.7-0.7,1c-0.3,0.3-0.6,0.5-1,0.7c-0.4,0.2-0.8,0.2-1.2,0.2c-0.4,0-0.8,0.1-1.1,0.4c-0.3,0.3-0.4,0.7-0.4,1.1
		c0,0.4,0.1,0.8,0.4,1.1c0.3,0.3,0.7,0.4,1.1,0.4c0.8,0,1.6-0.2,2.3-0.5c0.7-0.3,1.4-0.8,1.9-1.3c0.5-0.5,1-1.2,1.3-1.9
		c0.3-0.7,0.5-1.5,0.5-2.3V7.1C37,6.7,36.9,6.3,36.6,6z"/>
</g>
<g>
	<path d="M48.7,6c0.1-0.1,0.3-0.2,0.5-0.2c0.2,0,0.4,0.1,0.5,0.2c0.1,0.1,0.2,0.2,0.2,0.4l3.3,9.8l3.3-9.9c0-0.1,0.1-0.2,0.1-0.2
		c0.1-0.1,0.3-0.2,0.6-0.2c0.2,0,0.4,0.1,0.5,0.2c0.1,0.1,0.2,0.3,0.2,0.5c0,0.1,0,0.2-0.1,0.3l-4,11.9c0,0.1-0.1,0.2-0.2,0.3
		c-0.1,0.1-0.3,0.2-0.5,0.2c-0.2,0-0.4-0.1-0.5-0.2c-0.1-0.1-0.1-0.2-0.2-0.3l-3.3-9.9l-3.3,9.9c0,0.1-0.1,0.2-0.2,0.3
		c-0.1,0.1-0.3,0.2-0.5,0.2c-0.2,0-0.4-0.1-0.5-0.2c-0.1-0.1-0.1-0.2-0.2-0.3l-4-11.9c0-0.1-0.1-0.2-0.1-0.3c0-0.2,0.1-0.4,0.2-0.5
		c0.1-0.1,0.3-0.2,0.5-0.2s0.4,0.1,0.5,0.2c0.1,0.1,0.1,0.1,0.1,0.2l3.3,9.9l3.3-9.8C48.5,6.2,48.6,6.1,48.7,6z"/>
	<path d="M70.3,16.3c0.2,0,0.4,0.1,0.5,0.2c0.1,0.1,0.2,0.3,0.2,0.5s-0.1,0.4-0.2,0.5c-1.2,1.1-2.7,1.6-4.4,1.6
		c-1.9,0-3.4-0.7-4.8-2s-2-2.9-2-4.8s0.7-3.4,2-4.8s2.9-2,4.8-2c1.9,0,3.4,0.7,4.8,2c1.3,1.3,2,2.9,2,4.8c0,0.2-0.1,0.4-0.2,0.5
		c-0.1,0.1-0.3,0.2-0.5,0.2H61.2c0.2,1.2,0.7,2.2,1.5,3c1,1,2.3,1.5,3.7,1.5c0.7,0,1.3-0.1,1.8-0.3s1.1-0.5,1.5-0.9
		C69.9,16.4,70.1,16.3,70.3,16.3z M71.6,11.7c-0.2-1.2-0.7-2.2-1.5-3c-1-1-2.3-1.5-3.7-1.5c-1.4,0-2.7,0.5-3.7,1.5
		c-0.8,0.8-1.3,1.8-1.5,3H71.6z"/>
	<path d="M76.6,8.2L77,7.7c1.3-1.3,2.9-2,4.8-2s3.4,0.7,4.8,2c1.3,1.3,2,2.9,2,4.8s-0.7,3.4-2,4.8c-1.3,1.3-2.9,2-4.8,2
		s-3.4-0.7-4.8-2s-2-2.9-2-4.8V0.7c0-0.2,0.1-0.4,0.2-0.5C75.4,0.1,75.6,0,75.8,0c0.2,0,0.4,0.1,0.5,0.2c0.1,0.1,0.2,0.3,0.2,0.5
		V8.2z M81.8,17.7c1.4,0,2.7-0.5,3.7-1.5c1-1,1.5-2.2,1.5-3.7s-0.5-2.7-1.5-3.7c-1-1-2.3-1.5-3.7-1.5s-2.7,0.5-3.7,1.5
		c-1,1-1.5,2.3-1.5,3.7s0.5,2.7,1.5,3.7C79.1,17.2,80.4,17.7,81.8,17.7z"/>
</g>
<g>
	<path d="M112.5,19.2H111l-5.7-9l-5.8,9h-1.5l6.5-10L98.7,0h1.5l5.2,8.2l5.3-8.2h1.4l-6,9.2L112.5,19.2z"/>
	<path d="M115.3,19.2V0h1.3v19.2H115.3z"/>
</g>
</svg>
